<?xml version="1.0" encoding="UTF-8"?>
<svg id="Layer_2" data-name="Layer 2" xmlns="http://www.w3.org/2000/svg" viewBox="0 0 705.43 592.44">
  <g id="Layer_1-2" data-name="Layer 1">
    <g>
      <path d="M485.85,460.54l3.61.85-2.6-8.96c-3.12,1.31-3.64-2.22-.8-2.17l-1.91-7.77-1.49-4.91-1.98-10.32-.41-2.71-1.59-10.39-8.98,4.81-9.37,4.5-8.96,3.36-4.08,1.53-7.65,2.51-3.35.78-3.45,1.34-5.34,1.71-9.11,2.31-3.62.8-9.08,2.24-.09,1.97,2.57,8.04,3.46-2.6-1.64,5.93-.25,3.65,1.8,3.29.56,3.41,1.51,2.83,2.28-3.94-1.6,8.05,2.35,6.61,1.25,4.86,5.31,13.44,5.73,14.25,2.05,2.87,6.29-1.59,9.19-2.22,4.94-1.27,3.55-.78,3.27-.8,4.16-.63,2.53-.69,1.84.75,1.35-1.34,6.51-1.34,10.64-1.39,6.33-.16,5.98,1.55,3.69,1.8,8.14,3.72,11,6.06,9.84,8.15,5.16,3.87,6,5.89,3.88,4.17,5.93,8.14,5.57,6.49,2.16,3.98.93,4.72-2.41,4.16,9.69,6.61,3.91,10.02c-1.49,3.16-2.55,4.83-4.7,7.09-4.63,2.37-8.9,3.65-14.06,4.04l-4,.03-8.04.69-6.68-.24-8.33-.35-4.96-.24-6.04-.61-23.94-2.33-4.72-.65-12.3-1.06-6.58-.9-6.46-.34-6.27-.71-12.52-1.63-6.58-2.94-1-2.14-2.44.44-4.99,1.26-9.46,1.2-7-.15-3.99-1.02-2.71-.13-3.86-1.09-6.76-1.63-5.3-2.55-4.5-1.52-4.83,1.05-3.33.87-3.27.66-3.03.1-3.61.27h-13.08s-2.58.12-2.58.12l-6.17.78-1.08-1.44-1.23,1.45-4.24.62-18.69.63-11.31.46-4-.06-3.99.24-4.7.15-8.97.08-4.3.32-11.95.04-10.69-.29-6.33.28-5.98.29-13.94-.23-5.66-.39-4.35.11-10.01.19h-4.99s-15.63-.13-15.63-.13l-3.01,3.71-.42-3.52-5.01-.59-10.21.05-2.43,3.91-.88,1.46-1.49-.23,2.2-5.62-11.15-.73-6.85-.78-5.78-.88-4.82.29c.22,1.94.12,1.08-.05-.46l-10.34-1.22-15.25,2.53-4.77.4-9.42.56-7.17,1.04-9.82.87-2.6.32-8.28.91-6.58.52-5.11.86-8.17.65-10.83,1.35-6.27.58-8.98.98-8.71,1.34-5.29.57-8.82,1.12-4.66-2.4,3.28-3.24,3.22-.55,9.99-1.84,2.25-.09,1.31-.37,22.68-3.09,10.98-1.18,12.99-.92,10.1-1.28,6.33-.3,5.87-1.12,9.78-.76,5.7-.94,9.87-1.35c.99-.1,2.02-.63.41-.72l-7.3-7.32-2.25-7.34-2.12,3.2-1.29-1.36,2.51-5.26-1.07-5.05-1.51-6.99.51-1.64-.63-7.75.1-3.1-3.72,3.99,2.58-7.03,1.41-3.69.35-7.26.38-4.87.1-6.31-3.66,2.99-1.72-.19.67-2.08,5-3.14,1.63-15.35-5.27,2.76-.93-1.53,6.36-4.45.42-4.97,1.4-11.97-5.57,3.81-2.29-.86,6.36-4.61c.81-.35,2.03-2.02,2.05-2.95l3.1-16.97-9.68-2.12-10.69-2.48-2.37-2.22.72-1.95-.86-2.5.61-6.1,3.16-15.26,1.47-2.85.97-3.62.45-2.64,1.24-3.01.77-3.55,1.52-4.96,2.23-8.94,5.42-16.35,5.99-17.09,1.46-3.59,4.23-11.77,6.54-15.34,1.48-2.92,3.11-1.26-2.43,11.13-1.45,3.8-13.18,39.59-2.09,6.02-2.02,6.01-7.51,26.46-2.51,9.29-3.18,14.99-.86,2.71,2.78.98,7.03,1.48,7.96,1.8,3.99.71,13.06,3.16,16.05,2.85,5.76.91,12.11,1.64,12.98,1.88,24.96,3.81,7.26,1.85,3.02.69,5.61,1.36.79-2.41-.56-2.83,1.64-1.14-1.36-1.49,1.25-5.21.99-2.27,1.98-6.16-.1-1.69,3.44-14.7,4.28-19.71,2.09-7.01,1.67-8.27,3.17-15.96,1.02-11.08,1.14-7.64.47-2.65,1.35-2.43,2.74.05.6,7.76-4.11,34.03-1.85,7.78-.88,5.04-2.16,8.73-3.77,14.1-2.11,7.87-.9,2.46-.28,3.01-2.59,10.91-1.75,4.29-1.62,8.29c-.55,2.1-2.29,3.53-4.6,4.4l-6.9-1.08-2.46-.61-1.36,9.71-1.88,13.01-1.33,4.99-2.6,9.14-1.41,2.75c9.68-.28,18.6.35,28.01,1.84l11.15,2.32,4.17-3.12,4.12-.99-4.17,3.15c-.01-.12.06.57.15,1.43l9.38,1.84,8.98-4.96,5.42-.34-1.95,2.06-3.23.92-3.6,1.59-1.26,1.68,12.63,2.17,8.98,2.75c3.42-2.71,5.41-4.17,9.63-6.14-.96,2.87-1.95,3.56-3.7,4.52l-2.31,2.39,12.98,2.57,12.75,1.5,3.03-.84,1,1.45,16.65,1.62,5.4-4.35-1.67,4.54,7.42.47,6.98.96,2.63.14.87-2.56.41-3.24,3-6.36,1.02-2.9,4.01-6.99,2.88-5.29,1.21-2.62,3.34-7.76,3.27-6.73.79-2.29,4.27-9.65,2.01-5.8,1.04-2.95,2.76-7.36,3.42-8.63,1.5-3.57,3.21-7.48,3.46-7.85,1.89-4.93,2.01-4.14,2.19-5.89,3.2-7.72,3.31-7.46,4.49-10.69,3.58-9.27,6.45-20.86,1.93-7.05.74-3.03,1.51-6.6,3.64-10.12,2.81-1.28,1.56,1.86-2.57,12.1-1.28,5.74-2.44,10.29-1.58,4.69-.85,3.11-3.39,10.23-3.42,11.02-1.86,4.97-3.42,8.75-.76,2.21-2.8,6.04-3.9,10.06-2.82,6.33-1.94,4.69,3.42,13.15,4.8-1.64,15.04-3.87,10.27-2.84,3.86-1.22,6.02-1.84,19.43-7.38,4.05-1.96,3.99-1.95,8.23-3.91,7.39-3.67,3.17-.4.23-3.1-3.39-5.25-1.11-5.34-1.75-6.87-4.44-12.96-3.17-11.5-1.32-4.24.51-1.84-1.39-1.68-1.71-5.53-.78-4.26-2.63-11.01-3.03-11.07-2.21-6.84-.95-4.07-.98-3.04-1.64-6.04-2.52-6.84-2.2-6.86-6.24-19.22-3.54-2.75-2.17-2.89-14.77-14.95c-2.49.77-4.12,1.77-5.86,3.7l-3.83,1.53-11.18-1.42-6.01.96-7.01,1.14-8.42-2.79-3.62-1.61-2.63-1.14-2.41,1.99-5.04,7.23,5.16-3.09-.44,3.53-6.48,4.55-8.43,1.94-9.64.19-4.36-.57-4.36-.85-8.06-2.95-6.55-2.42-6.12-2.92-5.95-3.1-3.45-2.46-8.65-5.37-8.98-6.89-1.95-2.07-6.79-6.29-4.76-6.22-5.86-8.16-2.59-3.49-.93-2.84-3.17-5.33-.59-7.1-2.48,1.39-17.5,7.35-2.84,1.11-4.63,1.43-9.86,4.05-4.52,2.69-4.89,1.75-4.71,2.51-20.64,10.24-3.66,2.35-7.13,3.82-2.59,1.49-7.33,4.7-5.07,2.89-4.95,4.06-7.89,7.09-2.18,1.82-5.3,5.7-3.66,4.66-1.37.82-.75,1.62-4.65,5.49-6,9.01-6.21,11.77-4.59,9.18-5.62,11.67-.52,2.29-7.28,21.79-2.33,6.5-1.47,1.1.87,1.3-2.09,6.27-1.37,3.1-6.59,19.69-4.13,10.95-1.41,3.63-2.01,5.69-1.58,4.68-2.89,10.06-2.07,6.1-1.8,6.1-5.15,16.98-1.46,6.02-1.99,8.08-.87,3.49-1.93,8.06-1.42,6.34-2.71,12.41-1.35,6.61-1.45,5.72-3.22,16.63-2.58,15.56-1.46,7.46-.66,5.32-.93,9.28-.33,4.06-1.5,12.35-1.31,1.79-1.71.63-2.62-2.1-.15-5.66.4-2.32.78-9.61,1.95-17.89,1.39-8.23.75-3.95,1.37-7.01,1.86-8.39.37-2.69,2.34-13.61,4.89-19.19.24-2.8,3.71-13.43.59-2.97.98-4.22,1.82-7.38,2.92-11.92,2.89-8.1.88-3.36,1.28-3.58,1.81-5.07.94-3.09,2.07-6.65.72-1.58.66-2.95,3.09-8.21,1.79-5.96,3.56-9.82,3.1-8.77,2.87-8.01.94-2.15,1.62-5.09,2.34-7.07,3.39-10.6,1.8-4.18,2.38-7.28,1.92-4.21,2.57-6.51,2.82-6.2,2.44-5.59,2.68-6.26,6.7-11.2,5.56-7.58,3.52-4.41,8.37-9.69,4.6-4.41,7.96-7.87,4.07-3.09,15.82-10.12,2.18-.8,3.72-2.33,9.38-5.35,6.78-3.5,11.19-5.58,13.84-6.43,2.18-.75,3.41-1.43,5.7-2.46,2.43-.49,11.56-4.43,4.77-1.37,3.6-1.28,7.55-2.5,1.46.91,3.01-.32c-.04.09.7-1.69,1.13-2.72l3.51-8.67,2-6.27c.35-4.16.04-7.95-.73-12.06l-3.2-9.01-2.68-6.92c-2.14-4.77-3.98-9.7-4.93-14.92l-.3-7.21.29-4.75-4.43-.55-2.83-3.87-.89-3.38-.83-2.28-.79-4.03-1.11-6.98v-4.3s2.77-2.86,2.77-2.86v-2.89c-.73-6.75-.52-13.2.26-20.06,1.79-7.01,4-13.45,6.89-20.06l1.33-2.77,4.78-6.15,3.14-4.04,6.26-6.48,4.12-3,3.57-2.34,3.92-3.24,4.4-2.66,1.83-1.13,4.37-2.67,1.46-.55,3.74-1.5,3.67-1.89c.37,2.02.34,1.88-.01-.05l10.32-3.8,2.35-.69c8.84-2.54,17.72-4.26,26.87-4.44l10.39.1,8.64.63,15.05,1.36,12,3.35c3.38,1.53,6.31,3.34,9.43,5.58l9.01,12.1,4.37,6.55,7.21,13.71,8.87-1.31,5.98-.6,12.4-1.47,6.55-.4,9.88.49,2.61-.35,10.02,3.07c2.77,3.11,3.56,5.62,2.79,9.75l-6.3,5.74-5.98,3.09-7.99,4.03-9,3.96-12.58,4.59-6.73,2.1-1.41.87,1.03,1.46.45,2.22,1.68,4.44,7.54,1.51,1.98,3.26-2.36,3.34-5.98-1.51-.66,1.62.5,3.17,8.37.23c3.96.93,7.45,2.85,9.94,5.97l1.8,1.53.88,1.83-1.96,1.35-.45,9.14-1.13,7.91-2.1,5.88c-1.63,3.59-4.64,6.71-8.14,7.88l-3.51.62c.89,5.12,1.13,10.33.61,15.33l-.19,4.46.64,1.8,3.52,8.68.95,4.9-3.43,3.2-.92,3.58.81,8.77,1.42,7.06.03,12,.04,11.2-2.46,6.62-2.2,5.08-5.85,8.04-5.96,5.58,7.99,6.22,7.94,8.19,5.26,6.81,6.96,19.01,2.54,7.34,1.83,6.09,1.69,5.42.93,3.13,2.21,8.21.97,3.62,3.51,12.39,8.17,31.73,2.07,6.22.67,3.07,1.3,2.94,5.44,17.59.57,3.4,1.52,4.5-.68,1.16.49,1.58,1.35,1.23-.75,1.95-4.76,4.02-2.68.4-.99,1.69,1.17,1.67,2.16,11.42,4.48,3.02,3,3.27-6.29-1.77.67,2.92,1.82,6.76,3.43,1.88-3.07.44,2.78,8.34,6.01.97-.12,2.11-5.3-.55,2.29,7.38,1.08,4.76,2.69,6.34.86,2.42,2.24,2.11,3.48-2.04,5.22-2.34-.57,2.43-4.12,2.3,3.77,2.58,2.61-.68,1.22-.9,2.05-.3,1.46.89-1.76.98-1.82,1.23,1.59,1.15,5.73,1.21,1.86,4.08-2.72,3.11-5.71-2.59-5.06-2.74-3.76,3.79-.92,1.52h-1.37s-.36-1.57-.36-1.57l3.3-3.78-.18-1.54-5.81-.68-1.99-.96-2.46-.97-2.59-4.88-2.43-6.44-.96-4.3-1.66-1.88-3.67-1.93-1.67-.85,1.62-.75.64.88ZM317.92,25.5l6.92,3.51,2.06,1.55,1.72-1.93c7.64-6.03,15.77-11.23,24.6-15.39l4.43-1.4,7.52-2.61,9.46-2.24-6.87-.94-15.35-.26-3.99-.11-4.56.29-5.41.63-10.35,2.48-6.96,2.04-3.02,1.09-8.8,3.06-9.78,5.38-12.94,8.5,1.37.51,1.51-1.13c6.53-2.43,13-3.94,19.77-3.84l8.69.83ZM397.89,8.53l-.5.5.5.5.5-.5-.5-.5ZM371.54,58.6l33.06-10.83,15.42-3.25-8.03-14.59-2.8-4.26c-2.83-5.06-6.27-9.31-10.49-13.49l-3-1.83-3.83-.19-7.05-.31-13.4,1.55-14.31,4.75-8.91,3.95-18.62,11.77,8.91,11.6,6.11,10.06,6.96,13.65,19.98-8.57ZM298.01,94.54l3.17-1.35,16.58-8.29,3.49-3.57,6.19-3.13,4.65-2.1,8.23-3.72,8.1-3.96-5.83-10.07-5.61-9.3-6.36-9.55-3.48-3.8-6.7-5.18-2.91-1.2-10.91-1.38-4.89.71-10.13,2.85-9.13,4.22c-5.38,2.95-9.59,7.55-13.3,12.59l-4.96,13.07-1.37,5.43-1.41,7.77.08,11.91.4,3.45,2.87,18.98,2.05,3.66,10.69-6.1,6.06-3.78,14.45-8.14ZM319.12,108.34l.35,1.86,5.99-.49,8.25-.87,10.73-1.19,20.01-1.95,8.97-.44,4.86-4.66,8.16-2.23,11.02-1.23,9.15,1.17c2.84.54,5.8,2.12,7.59,4.13l1.65,2.55,3.59-.61,3.04-.79,3.36.16c2.52-3.63,3.96-4.62,8.32-6.1l-1.26-7.1-4.44.93-3.2-2.46,2.03-3.3,4.62-1.21-3.71-11.85-2.27-6.24-9.61.21-13.71,1.22-29.15,5.65-5.31,1.77-3.88.79-21.53,6.78-12.53,4.5-5.4,1.62-3.58,1.25-5.75,2.26-12.16,5.99-3.07,2-5.11,2.66-8.25,4.67-8.38,4.74-2.95,1.95-4.29,1.99-2.2,2.48.71,2.02,4.97.62-2.52,3.15-2.74-1.17,2.26,12.97,1.7,4.95,3,8.03,2.85,6.35,1.47,8.39,4.18-1.78-.85,3.52-2.55-1.4-.59,2.83.12,4.45-.22,4.74-1.02,3.25-1.45,4.6-1.99,4.8-3.51,5.76-2.87,3.02,1.73,4.17,9.21,12.68,2.63,3.62,3.06,3.85,8.76,8.17,10.76,8.33,2.96,1.98,4.28,2.45,7.08,4.23,2.55,1.43,1.99,1.09,2.67,1.23,13.73,5.17,9.72,1.44,3.54.12,6.3-.43c.24-.11,1.74-1.68,1.82-1.99l5.8-9.69-4.38-1.05c-4.7-1.14-9-3.22-12.96-6.04l-4.79-5.36-3.82-4.01-5.25-2.95-7.02-5.01c-4.6-3.32-7.77-8.31-9.03-13.88l-2.42-5.45-1.53-4.74c-2.74-2.98-3.9-6.54-4.55-10.87l1.83-11.01.35-4.01,2.07-24.16-.24-5.07-1.82-12.73-.07-5.99-3.87.48-2.79-3.46c-2.24-3.09-5.17-5.64-8.57-7.62-4.22-.09-6.95.59-9.68,3.13-4.06,5.48-5.45,11.57-4.9,18.49l1.69,6.32,5.49,8.97,8.93,5.32,6.79-.89c1.95-1.38,2.69-1.57,5.81-1.76-1.38,2.81-2.47,4.28-4.2,6.04l-3.41,1.94-4.16.62c-6.06-1.39-11.34-4.14-15.43-8.85l-1.8-3.14-2.46-3.55-2.06-4.94-1.75-9.12,1.58-10.19c1.82-4.04,4.15-7.99,6.87-10.88l3.38-1.71,2.88-1.06,7.42.55,4.95,2.31c1.8.96,4.99,1.13,7,.54l4.3-.07,1.53-1.76-1.11-.64-2.36-3.71c.64-1.68,2.7-1.72,2.6-.2l.84,3.21.62.38ZM443.03,135.12l6.6-5.23,2.92-8.38.65-13.12-7.79,1.6-3.91.07-1.44-2.73,11.75-1.67.41-2.49-2.13-1.77-10.6-.94-4.84.5c-1.51.85-4.04,2.82-5.33,4.13l-.6,9.01c.51,2.68,2.2,5.67,4.11,7.73l.25-10.16,4.69-1.36,2.37,3.15c-.11,3.39-.42,5.77-1.34,9.57l-5.97-1.38,5.63,10.93,4.58,2.54ZM401.47,137.55l6.15-4.98,4.02-8.82.53-9.2.18-7.32c-1.2-2.27-3.98-4.27-6.77-5.06l-10.21-.29-6.06.32-4.2.85-6.25,2.96.16,9.71.87,8.23c1.33,3.83,2.98,7.49,5.05,10.72,5.93,2.55,10.44,3.47,16.55,2.88ZM362.56,166.54l2.37,4.59,5.26,4.85,2.41-3.15,5.72-9.48,7.18-6.66,6.62-5.46,1.93,1.2-1.56,3.6,4.71-1.29,14.62-.04-4.73-3.67,1.56-6.68,2.87-.52,1.26,1.46-1.21,4.2,2.68,1.24,5.22.23,5.12,1.62,8.12-.21c3.17-1.58,4.85-3.15,5.58-6.47l-6.07-14.38-4.04-6.82-5.01-9.17-1.73-6.76-4.45.6c-.3,7.68-.95,13.3-2.64,19.99-2.13,4.81-5.09,8.93-9.92,11.11-7.99,2.49-16.13,1.62-22.81-3.09l-4.12-4.12-3.03-10-.56-11.65-5.55.3-4.55.16-16.35,1.51-13,1.11-3.3.43-19.79,1.33,4.67,6.13,3.57-4.68,3.33,2.48,2.74-3.6c3.1,4.21,4.5,7.8,4.75,12.73l1.71,7.04,1.51,3.97,3.24,6.4,1.95,4.09,2.71,3.39,5.75,5.37c3.33.49,5.88,2.94,7.22,4.89l8.03,1.87ZM438.85,155.53l-.5.5.5.5.5-.5-.5-.5ZM421.7,189.37l3.5-.53.93,3.19-.45,1.6,1.9.76,2.97-.3,2.82-8.49-.2-6.09.23-5.28-2.71-2.35-3.7-1.37-6.57,2.33-5.05.52c-7.15.15-13.52-.35-20.39-2.53-2.3-.25-3.94.54-6.19,2.14l-2.29,5.19.56,3.51,2.93,8.93,2.61,5.07,1.9-1.49,3.76,3.51,4.37,1,4.77-.41,1.03-3.72.46-3.23,3.78.45,9.03-2.43ZM390.24,521.83l5.15-1.03,15-3.07,12.2-2.97,1.99-.73-.93-1.78-4.94-10.05-1.36-4.62-4.2-10.53c-.36-1.71-1.47-2.06-1.63-.08l-1.47,4.06-1.54-1.92.51-1.69,2-6.53-3.04-9.32-1.96-8.05-2.66,3.37.49-5.38,1.07-2.93-3.29-11.34-1.74-6.56-6.1-.48.21-6.29-2.11-2.53-1.64,4.08-4.63,10.27-1.97,5.88-1.94,4.95-2.88,8.07-3.24,6.95-1.25,3.84-3.03,6.02-3.07,6.91-2.36,5.21-4.1,7.3-8.62,17.38-1.67.73.88,1.2,1.39-.32,7.77.36,4.42.89,2.32-1.12,1.66,1.28,1.25-1.23,3.72,1.25,8.53.39,6.82.16ZM492.42,530.44l-5.27-1c-1.31-1.47-1.97-2.41-3.23-5.04l7.4,1,3.67,1.48,6.07,1.96,13.98,4.94,3.2,1.67,3.21,1.9,7.89,7.1,2.55,2.37,5.67,5.53,1.33,1.51,4.21,4.03,4.4,3.13,4.55.85,3.04-3.67-6.18-7.37-4.23-5.67-8.45-9.61-8.9-8.15-5.17-2.69-12.27-3.72-5.6-1.34-8.45-1.71c-1.98-.68-3.47-1.91-4.87-4.02l3.98-1.26,8.3,1.81,7.29,1.61c.26.74,0,.01-.42-1.18l-10.14-4.97-3.71-1.29-3.52-1.81-5.46-.61-21.23,3.97-5.68,1.29-7.04,1.24-2.19.47-7.1,2.02-6.69,2.13-12.04,3.09-3.9.88-8.22,2.04-5.81,1.02-7.62,1.81-4.33.47-5.99.84-5.82-.46-1.51-.47-8.74-.54-4.78.75-2.65-.68-7.33.03-3.53-.1-4.69-.13-6.84-.67-9.37-.15-8.01-.93-1.83,4.02-1.92.03,1.02-4.17-14.99-1.51-2.9-.82-2.94,4.01c-1.31,2.42-2.37,4.15-5.46,5.19l5.31-9.06-15.62-2.46-5.96-1.16-6.38-1.52-4.86,5.93-2.55,3.91-1.45-1.2,2.29-4.41,3.64-4.91-4.96-1.35-4.36-.67-8.36-1.84-7.09-1.06-7.89,7.42-1.59-1.39,6.85-6.82-10.88-1.98-4.52,5.36-3.04,3.96-3.42,4.88-1.68-.57c2.76-5.66,5.58-9.31,10.43-13.63l-7.44-1.84-7.99-1.24-4.09-.33-5.51-.99-2.46.58-7-.23-3-.04-9.22.88-9.89,2.58-3.19-.39-.97-2.24,1.23-1.79,7.18-1.98,6.97-1.65,7.81-.82-.38-2.6,1.49-7.63.8-3.34,1.71-6.46,1.28-10.27,1.07-6.99,1.24-3.95-10.16-1.74-7.6-1.57-9.35-1.26-10.66-1.63-1.44-.21-11.73-1.75-2.62-.43-12.07-1.73-19.11-4.29-1.18,1.12-1.27,14.5,4.84-1.32.44,1.66-5.73,2.45-1.46,15.45c.04.05,1.3,2,.62.96l2.76.66-3.77,2.71-1.18,13.98,4.15-2,7.86-5.67c-.89,3.87-2.26,4.41-4.37,5.94l-7.91,4.33-.77,14,3.67-3.41,1.62-1.13,1.49.89-4.25,4.43c-2.45,2.7-3.5,6.19-3.16,9.84l-.11,2.79-.36,5.29.63,6.32.41,6.35,3.68-3.44c-.62-.1,1.2.19,1.49.24l-1.09,1.77-3.63,5.95,1.05,5,2.03,7.28,11.87,6.2,2.52.03,3.71,1.76,12.11,2.11,1.56-1.33,1.25,1.22,11.3.75,6.18,1.65,1.68-.77,6.08.74,3.61-.36c2.5-3.24,3.6-4.57,6.52-6.79l-4.2,7.37h12.07s2.45.36,2.45.36l1.27-1.54,6.3-8.69,1.58-1,.51,1.69-6.51,9.38,20.08.3,6.93-.09,1.73-.03,23.15-.08,6.33-6.77-1.12,4.87-1.67,1.22,1.72.74,5.17-.21,3.97.1,3.99-.05,11.03.14,24.36-.63-1.3-4.02c1.19-2.21,1.92-3.47,4.07-5.66l-1.83,9.47,7.4.05,2.6-.19,11.72-.34,4.86-.29,11.04-.56,9.91-.58,5.42-.24,9.11.23,4.09-.06,18.67-2.15,3.12,1.49,4.01,1.76,3.09,1.82,4.67-.26,2.1,1.46,3.77.27,11.98.7,4.71-.97,5.85-1.03,5.81-1.11,8.74-3.38,4.77-2.15,6.17-2.83,3.49-1.65,3.46-.91,6.95-2.22,8.56,1.34,4.51.03c5.53,1.62,10.84,3.64,15.68,6.32l2.93,2.21,7.28,4.77c3.54,2.4,7.01,3.34,11.73,2.46-.16-2.56-1.26-4.51-3.03-6.06l-6.12-6.05-5.81-6.19c-3.58-3.8-7.98-6.57-12.96-7.91l-9.63-3.41-4.82-2.31-2.37-2.09,1.43-2.41,4.9,1.65,9.48,3.5,3.07,1.07,7.82,2.37,5.37,2.31,8.79,6.22,10.27,7.75,5.43,3.5,5.67,2.48,5.9-2.88c-2.05-3.73-3.31-5.59-5.89-8.23l-9.65-9.3-7.85-8.32-5.46-3.55-3.9-1.11-6.1-2.04-5.38-2.1-5.78-2.41ZM367.92,478.53l-.5.5.5.5.5-.5-.5-.5ZM381.91,524.53l-.5.5.5.71.5-.71-.5-.5ZM50.23,540.53l-.5.5.5.5.8-.5-.8-.5ZM517.78,563.53l-.5.5.5.5.5-.5-.5-.5ZM521.34,568.58c2.76,2.59,3.73,5.75,2.65,9.13-1.75,2.9-4.94,4.22-8.58,4.32l-6.47-1.06-6.61-4.28-5.97-4.23-5.17-2.83c-5.55-2.86-11.44-4.5-17.85-4.46l-4.34-.73c-1.42.1-4.13.59-5.32,1.11l-9.32,5.02-2.25.58-11.08,4.85c-2.17-.43-1.55.23-.26.69l3.56.64,5.98,1.22,6.29.56,9.86.99,5.86.47,4.96.5,6.06.49,6.95.59,4,.58,15,1.64,6.06.3,4.05.7,11.84.48,7.33.15h9.99s7.71-.73,7.71-.73c4.11-.45,6.56-1.99,9.68-6.06l-6.78-6.63-4.63-4.27-1.03-1.51-7.23-2.87.23,6.09c-1.07,2.52-3.91,4.22-7.17,4.93l-8.33-1.76-9.23-5.7-.46,1.11ZM521.09,566.4l-2.4-.82,1.82,2.19.58-1.37Z"/>
      <path d="M682.34,554.29l3.74,1.93-2.04,3.13-5.93.73-8.89-.72-12.09-1.94-11.99-1.05-3.92-.63-9.07-.28-2.93-.23-3.98-.38-6.11.05-5.94-1.06-6.06.08-12.13-.89-5.82-.78-3.33-.26-4.67-.31-5.55-.53-10.5-.77-4.96-1.62-1.87-1.32-1.78-.93.78-1.98,6.91-.49,12.72,1.8,2.55-.17,14.71,1,24.95,1.65,5.69.54,6.41.54,2.15-.3-3.32-1.34-13-6.07-9.5-4.76-4.08-1.8-13.9-7-6.46-3.75-4.56-3.23-6.35-4.73-2.91-2.03-4.54-3.52-.65-1.81.96-1.14-2.69-2.57-3.83-.13-4.27-.54-8.79.25-2.3-.18-6.88-.6-8.46-2.18-1.41-2.14-1.47-3.94c1.81.49.69.19-1.53-.41l2.84-1.61-2.23-.66.05-5.78.63-4.35-.06-7.84,1.11-5.64-.25-2.55.93-11.29.59-6.26.69-8.34.4-3.62.4-2.94.97-10.8.79-5.29.65-4.07.22-3.87.05-4.06.8-4.97.7-6.52.1-3.53,1.06-3.47-.7-1.06.38-1.81,1.36-9.6.3-2.98,1.28-8.85,1.02-11.9,1.07-7.03,2-16.97,3.96-25.7c.61-.59,2.17-2.11.63-.61l.36-6.38,1.37-6.96.76-6.31,2.32-14.39.79-5.91,1.23-6.02,1.74-12.35.4-2.59.46-2.38.72-4.56,1.38-11.21,1.44-9.98.9-5.97.61-3.57.15-3.71,1.98-12.98.41-5.87,1.22-4.22.05-6.72,1.37-4.89,1.28-5.91,5.94-2.09,6.37-.68,4.75-.48,4.9-.68,5.04-.15,11.34-.49,4.73.07,6.52-1.06,6.67-.33,13.74-.41,3.91-.54,6.02-.22,6.01-.05,15.63-.52,11.38-.55,11.99-.16,13.87.26.43,3.57-10.11,2.22-3.57-.47-3.34.29-2.34.09-7.98.79-4,.31-7.94.1-20.73.74-2.22.22-10.1.35-3.85.07-2.19.35-6.89.41-6.91.57-14.47.88-4.52-.02-4.01.44-4.06.22-5,.4-4.07.45-4.47-.1-1.71,5.05c-.64.26-3.03,1.24-.58.24l.23,3-1.2,8.83-.69,5.39-.35,2.65-.81,1.45.45,1.33-.63,5.16-.33,7.07-.75,4.03-.74,6.91-.74,3.55-.69,7.5-1.94,11.68-.59,2.25-4.49,30.77-.95,5.25-2.5,14.34-2.04,13-.84,4.95-2.32,17.74-.98,5.93-1.09,7.04-.59,3.62-.12,3.67-1.17,11.72-2.24,18.04-.77,5.92-1.01,8.06-.49,3.76-1.09,10.91-3.72,37.98-.79,5.29-.55,7.69-1.14,11.32-1.43,23.04v5.07s-1.05,3.38-1.05,3.38l1.71,1.12,2.86-.09,2.86.05,1.63.2,18.41.66,3.61-.11,23.97-.48,7.94.06,10.95.29,6.05-.3,13.66-.2,11.35-.95,8.16-.5,9.82-.71,6.89-.75,12.13-.96,3.95-.76,6.48-.87,4.56,2.08c-3.93,3.14-7.24,4.2-12.05,5.09l-4.25.34-11.77,1.59-5.72.25-7.24.53-13.05.84-7.51.48-8.45.74-3.98-.05-4.93-.02-4.78.49-4.19.11-5.72-.39-3.42.15-5.6.11-3.08-.06-12.42.44-1.45.72,10.71,7.21,10.35,6.7,5.03,3.1,5.53,2.96,7.66,3.77,22.56,11.21,15.7,5.58,5.02,2.69,6.69,1.56,3.22.36,3.12.39,2.87.65,3.01.34,13.26,1.61ZM565.17,186.49l-2.11-1.9c.38.91,1.14,1.6,2.11,1.9ZM544.75,317.53l-.5.5.5.5.5-.5-.5-.5ZM544.75,336.53l-.5.5.5.5.61-.5-.61-.5ZM530.76,427.53l-.65.5.65.5.5-.5-.5-.5Z"/>
      <polygon points="671.42 585 667.64 587.24 664.17 588.01 645.97 588.29 633.49 588.26 630.22 588.25 620.22 588.24 607.83 587.11 597.24 584.07 599.38 580.98 607.31 581.25 614.15 581.64 618.04 582.05 631.29 582.23 635.22 582.02 646.26 582.42 656.76 581.71 658.94 582.42 665.54 581.94 671.42 585"/>
      <path d="M232.49,308.76l-3.19-9.07-2.77-6.2-4.05-6.86-5.37-7.54-4.73-5.38-10.61-9.43-6.76-4.32-8.62-4.24-8.79-2.17-2.16-.44.71-1.67,4.46-.29,3.83.57c4.6,1.32,9.04,3.05,13.25,5.44l4.41,2.8,7.66,5.44,9.83,9.23c4.8,6.51,8.8,13.29,12.44,20.55l3.06,10.34.13,2.86-2.71.38Z"/>
      <path d="M473.97,483.47l-7.89,5.31c1.35-3.9,3.37-5.21,7.61-7.01l.28,1.69Z"/>
      <polygon points="425.64 460.83 423.95 460.58 425.1 454.13 426.92 453.3 427.41 455.43 425.64 460.83"/>
      <path d="M419.27,451.6c.36,1.91-1.62,2.91-2.04.48l1.16-4.65c-.35-.6,2.18-.51,2.12.05l-1.24,4.12Z"/>
      <path d="M476.07,433.56l3.3,1.44-.52,1.62-2.73-.96c-.29-.1-.36-2.68-.06-2.09Z"/>
      <polygon points="438.74 451.05 439.44 453.01 437.55 454.58 437.39 449.27 438.74 451.05"/>
      <polygon points="430.76 493.19 428.52 492.8 431.07 488.07 430.76 493.19"/>
      <path d="M427.21,477.22c-.3,1.49-.59,1.17-.73-.16l.26-2.6,1.79.57-1.31,2.19Z"/>
      <polygon points="515.19 491.72 513.79 494.58 512.2 494.07 512.92 491.85 515.19 491.72"/>
      <polygon points="493.69 491.87 493.65 490.15 495.85 489.45 496.36 491.1 493.69 491.87"/>
      <circle cx="239.58" cy="340.14" r=".86"/>
      <polygon points="203.12 530.26 201.45 529.38 204.51 524.47 209.61 519.39 213.77 518.45 203.12 530.26"/>
      <path d="M201.52,549.61l-1.53,1.33-.99-2.47,6.52-8.03,5.34-3.38c.03,1.17.08,2.8.05,1.94l-6.52,6.5-2.88,4.12Z"/>
      <path d="M245.93,560.63s-1.26-1.02-1.26-1.02l9.16-4.85,2.53-2.07,3.51.36-8.81,6.13-5.13,1.46Z"/>
      <polygon points="223.88 540.22 222.08 544 220.93 540.36 227.2 529.28 230.16 528.97 226.97 533.95 223.88 540.22"/>
      <polygon points="331.58 535.24 327.88 540.07 325.99 541.77 327.62 535.89 334.4 529.66 335.65 530.75 331.58 535.24"/>
      <polygon points="293.55 553.9 291.93 554.61 291.47 552.67 291.48 542.06 293.46 541.52 293.55 553.9"/>
      <polygon points="244.1 528.14 239.94 534.77 239.78 531.2 247 520.83 250.95 520.79 247.06 523.47 244.1 528.14"/>
      <polygon points="305.59 536.81 302.34 539.51 305.59 531.51 311.18 529.66 305.59 536.81"/>
      <path d="M185.9,537.56l-4.59,4.31c1.05-3.08,2.18-4.79,3.76-6.67l4.48-3.71.57,1.11-4.22,4.96Z"/>
      <polygon points="124.67 467.62 121.07 469.11 126.58 463.31 132.68 461.44 129.81 463.66 124.67 467.62"/>
      <polygon points="254.54 539.72 249.69 544.24 245.19 545.73 251.44 539.09 254.54 539.72"/>
      <polygon points="129.11 537.67 126.83 540.67 127.05 534.11 130.87 529.98 129.11 537.67"/>
      <path d="M219.37,567.85c-.98-.75-1.78-1.36-1.76-1.34l1.75-6.42,3.25-2.61-3.24,10.37Z"/>
      <polygon points="310.45 550.69 309.84 546.41 314.56 541.05 312.82 547.58 310.45 550.69"/>
      <path d="M232.09,556.43l-2.38,4.34c-.52-2.31-.21-4.28.74-7.96,1.05.13,2.88.37,1.95.28l-.32,3.35Z"/>
      <polygon points="142.95 489.02 139.09 492.5 137.68 492.22 144.42 485.13 145.57 486 142.95 489.02"/>
      <path d="M148.19,554.52l-3.65,5.83c-.25,1.28-.79,1.13-1.44-.49l2.74-6,2.34.65Z"/>
      <path d="M275.12,544.68l-2.28,4.09c-.75-3.85.3-6.13,2.22-8.76l.9.96-.84,3.71Z"/>
      <path d="M128.03,512.47l-2.2,2.36c-.18-4.04.88-7.16,5.5-7.68l-3.3,5.32Z"/>
      <polygon points="291.46 523.51 288.08 530.31 284.2 531.16 291.46 523.51"/>
      <polygon points="337.88 555.71 338.51 558.08 336.93 558.59 336.05 556.9 335.12 553.89 334.36 551.98 335.98 551.46 336.78 553.15 337.88 555.71"/>
      <path d="M138.42,470.08l-5.82,5.97-1.89-1.45c3.27-2.65,3.72-3.23,7.71-4.53Z"/>
      <polygon points="169.65 532.97 163.11 539.55 161.66 539.21 168.09 532.45 169.65 532.97"/>
      <polygon points="358.39 547.57 358.32 550.11 356.97 550.86 355.43 548.76 356.67 543.97 358.39 547.57"/>
      <polygon points="267.75 570.99 266.09 567.43 272.13 563.62 267.75 570.99"/>
      <polygon points="168.28 561.83 166.52 558.91 169.24 555.37 169.98 558.41 168.28 561.83"/>
      <polygon points="211.6 509.93 207.69 514.08 205.45 514.27 210.08 509.47 211.6 509.93"/>
      <polygon points="321.9 559.04 318.77 560.24 322.06 554.08 321.9 559.04"/>
      <polygon points="348.49 539.41 352.12 533.69 354.23 534.52 348.49 539.41"/>
      <polygon points="272.56 534.96 269.02 538.53 268.22 537.78 270.96 534.43 272.56 534.96"/>
      <path d="M155.6,473.33l2.84-2.9c.42,1.53-.44,2.94-2.84,2.9Z"/>
      <polygon points="373.43 541.19 371.75 540.89 374.23 538.14 374.86 536.48 376.22 536.81 373.43 541.19"/>
      <polygon points="280.79 558.02 278.48 559.71 278.91 557.46 280.79 558.02"/>
      <path d="M376.35,97.81l-4.92.35,1.46-5.75,10.18-5.5,12.19-3.31,6.05,2.38-.12,3.86-3.85.58c-4.45.39-8.86,1.33-13.04,2.65l-7.95,4.75Z"/>
      <path d="M297.82,140.53l-.61,1.87-1.9-1.11v-4.86s5.35-5.91,5.35-5.91l-5.78-6.11-4.26-.73c2.33-3.12,5.11-2.87,7.94-1.26,6.69,4.72,10.55,11.62,9.84,20.19l-3.2-1.37-3.1-7.24-4.27,6.53Z"/>
      <polygon points="279.53 140.81 278.54 142.17 276.3 141.73 274.57 140.05 276.03 138.71 279.53 140.81"/>
      <polygon points="331.83 232.59 327.59 231.26 329.16 227.02 331.83 232.59"/>
      <polygon points="277.12 119.01 276.43 116.17 279.24 114.56 279.85 117.1 277.12 119.01"/>
      <polygon points="277.67 131.45 274.99 132.89 273.35 130.11 275.92 129.5 277.67 131.45"/>
      <polygon points="312.21 97.7 310.1 103.44 308.44 100.05 312.21 97.7"/>
      <path d="M304.92,106.2c-3.91-1.07-2.43-3.84.17-3.84l-.17,3.84Z"/>
      <path d="M326.55,104.53c.09,2.63-2.27,2.63-2.18,0-.09-2.63,2.27-2.63,2.18,0Z"/>
      <polygon points="315.33 212.15 313.97 214.57 312.38 214.06 313.17 212.19 313.89 209.45 315.33 212.15"/>
      <polygon points="297.69 107.12 298.89 102.52 300.87 105.18 297.69 107.12"/>
      <polygon points="287.55 169.9 287.01 172.67 284.3 172.15 285.01 169.33 287.55 169.9"/>
      <polygon points="280.45 151.71 277.67 147.23 281.32 148.15 280.45 151.71"/>
      <polygon points="324.88 96.34 322.39 94.09 323.73 91.98 325.5 93.04 324.88 96.34"/>
      <polygon points="340.4 235.39 337.71 234.77 337.75 231.8 339.76 231.83 340.4 235.39"/>
      <polygon points="290.07 158.76 286.28 159.42 287.03 156.3 290.07 158.76"/>
      <polygon points="338.47 89.3 334.37 92.01 334.73 89.01 338.47 89.3"/>
      <polygon points="320.14 94.28 318.01 96.56 316.7 95.58 317.39 92.84 320.14 94.28"/>
      <polygon points="312.33 106.76 309.04 108.85 308.83 105.99 312.33 106.76"/>
      <path d="M334.58,99.99h-2.24c-.73-3.46,2.97-3.46,2.24,0Z"/>
      <polygon points="320.85 229.98 318.91 230.6 318.09 228.07 320.03 227.45 320.85 229.98"/>
      <polygon points="329.83 96.18 328.12 96.13 328.88 93.46 330.54 93.97 329.83 96.18"/>
      <polygon points="324.72 99.37 323.34 101.3 321.25 99.94 324.72 99.37"/>
      <polygon points="322.32 219.62 319.23 219.08 321.39 217.74 322.32 219.62"/>
      <circle cx="282.51" cy="155.53" r="1.12"/>
      <polygon points="343.95 242.53 344.94 242.53 345.44 243.03 344.94 243.53 343.95 243.53 343.45 243.03 343.95 242.53"/>
      <polygon points="277.01 123.53 277.51 124.03 277.51 125.03 277.01 125.53 276.51 125.03 276.51 124.03 277.01 123.53"/>
      <polygon points="303.63 66.42 299.51 64.2 301.27 58.17 306.56 60.5 303.63 66.42"/>
      <polygon points="282.13 73.91 280.08 76.67 277.03 75.15 275.67 73.05 277.03 71.01 278.79 68.84 281.51 70.09 282.13 73.91"/>
      <path d="M361.71,157.77c-.41,2.57-2.96,2.59-3.58.21l3.58-.21Z"/>
      <polygon points="356.42 154.26 355.69 157.22 354 157.26 353.61 154.89 356.42 154.26"/>
      <polygon points="342.73 148.03 340.85 148.59 340.42 146.34 342.73 148.03"/>
      <path d="M348.44,154.53q-.99.99,0,0t0,0Z"/>
      <rect x="348.59" y="146.67" width=".71" height=".71" transform="translate(-1.83 289.63) rotate(-44.97)"/>
      <rect x="339.6" y="137.67" width=".71" height=".71" transform="translate(1.9 280.64) rotate(-44.97)"/>
      <polygon points="379.8 48.73 375.35 39.61 368.87 26.5 369.73 24.44 375.2 23.35 377.41 22.71 397.35 17.75 401.67 18.91 412.37 40.76 397.65 43.78 388.29 46.19 385.15 47.07 379.8 48.73"/>
      <path d="M396.62,125.06l-4.78-1.3-1.47-4.28,1.42-6.34,3.11-1.66,3.12,1.64c1.6,4.12,1.3,7.81-1.39,11.94Z"/>
      <path d="M430.28,178.58c-3.74,4.06-7.65,5.78-12.92,6.33-7.5.49-14.72-1.26-20.8-5.49l-4.4-3.56-.58-1.95,1.83-1.57,5.26,2.98c5.5,3.71,11.89,4.99,18.75,5.15l8.21-2.44,1.54-1.72,3.13,2.27Z"/>
    </g>
  </g>
</svg>