<svg width="79" height="78" viewBox="0 0 79 78" fill="none" xmlns="http://www.w3.org/2000/svg">
<path d="M39.8772 77.9539C39.1861 77.9539 38.4834 77.8963 37.8037 77.9654C36.5251 78.1037 35.2925 77.7926 34.0484 77.6429C32.9079 77.5047 31.779 77.136 30.6386 76.8941C28.2195 76.3873 25.9732 75.5003 23.7154 74.5672C21.3885 73.5996 19.338 72.1942 17.253 70.8349C16.1356 70.1092 15.0758 69.2913 14.1427 68.3121C13.5552 67.7016 12.8065 67.2523 12.2305 66.6303C10.0188 64.2688 7.89919 61.7921 6.3095 58.9929C4.74285 56.2282 3.30292 53.3253 2.49656 50.2266C2.11642 48.7636 1.52892 47.3237 1.56348 45.7685C1.06815 44.893 1.29854 43.8793 1.06815 42.9463C0.826237 41.9441 1.01055 40.8382 1.01055 39.7784V36.7373C1.01055 36.2304 0.906874 35.7005 1.03359 35.2167C1.37917 33.8689 1.24094 32.429 1.81691 31.1158C1.94363 28.9731 2.8191 27.0264 3.53331 25.0565C4.21296 23.1789 5.03084 21.3357 6.10215 19.6193C6.79332 18.5135 7.46145 17.4076 8.21021 16.3478C8.53276 15.887 8.80923 15.3802 9.15481 14.9424C10.7791 12.9035 12.6107 11.0373 14.5459 9.32094C16.078 7.96164 17.7829 6.7521 19.5454 5.71535C20.7434 5.01266 21.8953 4.18326 23.3007 3.75704C24.2108 3.48057 25.0632 2.91612 25.9732 2.54749C27.5284 1.91392 29.1411 1.4877 30.7538 1.08452C32.5508 0.646782 34.3824 0.462471 36.2025 0.197523C38.3451 -0.113503 40.4647 0.0823282 42.5958 0.00169199C43.1948 -0.0213469 43.8054 0.197523 44.4159 0.25512C45.0264 0.301198 45.637 0.416393 46.236 0.497029C48.1828 0.750457 50.0489 1.26883 51.9151 1.83329C54.1268 2.50142 56.2003 3.49209 58.2508 4.55188C60.186 5.55407 61.9831 6.72906 63.711 8.0538C65.6232 9.51677 67.4548 11.0719 69.0099 12.892C70.542 14.6775 72.0396 16.4976 73.2146 18.5941C74.1784 20.3088 75.0813 22.057 75.9216 23.8355C76.8201 25.7362 77.4998 27.7175 77.8915 29.791C78.0758 30.7702 78.3177 31.7378 78.4674 32.74C78.6633 34.0417 78.8937 35.3434 78.9628 36.6681C79.0319 38.0505 78.9858 39.4328 78.9743 40.8152C78.9743 41.5178 78.9973 42.209 78.7324 42.9232C78.502 43.5683 78.7785 44.3055 78.4674 45.0313C78.237 45.5497 78.4329 46.2293 78.1794 46.8398C77.9606 47.3467 77.926 47.9457 77.8915 48.5102C77.8569 49.0976 77.5919 49.5815 77.3961 50.1114C77.2118 50.6297 77.0621 51.1712 76.9008 51.701C76.3133 53.6709 75.4724 55.5485 74.5163 57.3456C73.6408 58.9813 72.6731 60.571 71.5327 62.057C70.6918 63.1514 69.8854 64.2803 68.8948 65.2479C67.8119 66.3077 66.7636 67.4136 65.6578 68.4619C64.022 70.0055 62.1789 71.2841 60.2436 72.413C58.8037 73.254 57.3177 74.0027 55.8086 74.7054C54.1038 75.4887 52.3413 76.1108 50.5212 76.6292C49.0698 77.0323 47.5607 77.2051 46.1208 77.6544C45.2107 77.9424 44.1855 77.9193 43.2063 77.9539C42.1005 78 40.9946 77.9539 39.8887 77.9539H39.8772ZM43.0911 43.073H60.7044V34.825H60.0248C57.7554 34.9517 55.4976 34.6522 53.2168 35.0439C52.0648 35.2513 50.8092 34.9057 49.6112 34.825C49.3577 34.802 49.0928 34.7905 48.655 34.7674C49.0582 34.1569 49.5536 33.7192 49.6342 33.2238C49.7955 32.2216 50.6479 31.6226 50.9013 30.7011C52.2606 29.0999 53.2628 27.2567 54.4148 25.5288C54.9677 24.6994 55.4631 23.8239 56.0966 23.0521C56.8454 22.1306 57.191 21.0478 57.8015 19.9073C53.8734 19.9073 50.1065 19.9073 46.3512 19.9188C46.1668 19.9188 45.971 20.1032 45.971 20.1032C45.3605 20.0225 44.9343 19.9188 44.508 19.9188C39.8542 19.9073 35.2003 19.9073 30.5465 19.9188C29.9359 19.9188 29.3369 19.8036 28.7033 20.1377C28.3462 20.3335 27.7472 20.1147 27.2749 20.0225C26.699 19.9073 26.1345 19.7 25.6276 20.3335V27.7175C25.6276 27.7521 25.6507 27.7982 25.6737 27.8327C25.6968 27.8673 25.7428 27.8903 25.8696 28.017C26.9754 28.0746 28.185 28.1783 29.383 28.1898C32.8849 28.2129 36.3868 28.1898 39.8887 28.1898H40.914C40.7988 28.57 40.7412 28.8234 40.649 29.0538C40.1537 30.3094 39.3473 31.3807 38.5986 32.4866C38.0917 33.2353 37.5733 33.9841 37.0089 34.825C35.9952 34.825 34.8432 34.802 33.7028 34.825C33.2766 34.825 32.8619 34.7905 32.4011 35.0209C31.9633 35.2397 31.2261 35.2743 30.7999 35.0439C30.247 34.7444 29.7516 34.8366 29.2332 34.825C27.4362 34.7905 25.6392 34.8135 23.8421 34.8135H19.338C19.1767 35.401 19.4302 35.977 19.004 36.4378C18.9348 36.5069 18.9348 36.7603 19.004 36.8294C19.4763 37.3363 19.2459 37.9583 19.2574 38.5228C19.2919 40.0318 19.2574 41.5409 19.2574 43.1075H28.5766C29.5443 43.1075 30.5234 43.0039 31.3989 43.5453C31.2491 43.695 31.0072 43.8333 30.9381 44.0291C30.5119 45.1234 29.8783 46.0911 29.2217 47.0472C28.4154 48.2337 27.609 49.4202 26.8257 50.6182C25.812 52.1733 24.66 53.6363 23.9688 55.3758C23.1855 56.09 23.0934 57.2189 22.264 57.9792H56.039C56.039 57.7833 56.0851 57.6221 56.039 57.5069C55.8086 56.977 55.5207 56.4701 56.039 55.9287C56.1312 55.825 56.0505 55.5716 56.0505 55.3873V50.8256C55.8778 50.48 55.7626 50.2496 55.6358 50.0307C54.1498 49.9846 52.6638 49.9386 51.1893 49.8119C49.3577 49.6621 47.5031 49.6045 45.637 49.9846C43.8054 50.3648 41.9507 49.6967 40.0961 49.7427C39.7966 49.7427 39.4856 49.7197 39.1861 49.6967C39.1861 49.4663 39.1285 49.2935 39.1861 49.1898C40.4647 47.1739 41.7434 45.1695 43.1027 43.0615L43.0911 43.073Z" fill="#E0D9C3"/>
</svg>
