<svg width="98" height="94" viewBox="0 0 98 94" fill="none" xmlns="http://www.w3.org/2000/svg">
<path d="M11.3243 52.2295C11.6521 52.0644 11.9799 51.8994 20.4668 46.6154C28.9536 41.3314 45.5896 30.9335 57.6426 22.6473C69.6955 14.3612 76.6613 8.50208 81.1103 4.36966C85.5592 0.237238 87.2802 -1.99089 76.1609 9.23979C65.0417 20.4705 41.0302 45.2275 26.1611 61.5296C11.292 77.8318 6.29302 84.9288 3.59486 88.9149C0.896695 92.901 0.650843 93.5612 1.30272 92.6222C1.9546 91.6832 3.51167 89.125 6.73133 85.1251C9.951 81.1252 14.7861 75.7612 18.9979 71.595C23.2096 67.4288 26.6516 64.623 30.4325 62.1873C34.2134 59.7516 38.229 57.7711 40.5025 56.7095C42.776 55.648 43.1857 55.5654 42.9461 56.3894C42.7064 57.2134 41.805 58.9464 41.2177 60.2518C40.6304 61.5571 40.3845 62.3824 42.3066 62.106C44.2287 61.8297 48.3263 60.4268 51.0927 59.374C55.2257 57.8012 58.734 56.4032 62.2504 55.4454C63.9098 54.9934 66.5144 55.0603 71.5071 55.5604C74.1973 55.8299 77.2375 55.7305 79.9058 55.5654C82.5742 55.4004 84.7869 55.0703 87.3609 54.5289C89.9349 53.9875 92.8031 53.2448 94.4856 52.7796C96.1681 52.3145 96.5778 52.1495 97 51.9794" stroke="#E0D9C3" stroke-width="2" stroke-linecap="round"/>
</svg>
